<svg width="24.000000" height="28.000000" viewBox="0 0 24 28" fill="none" xmlns="http://www.w3.org/2000/svg" xmlns:xlink="http://www.w3.org/1999/xlink">
	<desc>
			Created with Pixso.
	</desc>
	<defs/>
	<path id="YouTube" d="M19.65 20.38L18.11 20.38L18.11 19.47C18.11 19.07 18.44 18.74 18.84 18.74L18.94 18.74C19.34 18.74 19.67 19.07 19.67 19.47L19.65 20.38ZM13.86 18.44C13.47 18.44 13.15 18.71 13.15 19.03L13.15 23.43C13.15 23.75 13.47 24.02 13.86 24.02C14.25 24.02 14.57 23.75 14.57 23.43L14.57 19.03C14.57 18.71 14.25 18.44 13.86 18.44ZM23.27 15.98L23.27 24.35C23.27 26.35 21.54 28 19.43 28L3.65 28C1.54 28 -0.19 26.35 -0.19 24.35L-0.19 15.98C-0.19 13.97 1.54 12.33 3.65 12.33L19.43 12.33C21.54 12.33 23.27 13.97 23.27 15.98ZM4.7 25.25L4.7 16.44L6.66 16.44L6.66 15.14L1.44 15.13L1.44 16.41L3.07 16.42L3.07 25.25L4.7 25.25ZM10.57 17.76L8.94 17.76L8.94 22.46C8.94 23.14 8.98 23.48 8.93 23.6C8.8 23.97 8.2 24.35 7.97 23.64C7.93 23.52 7.97 23.14 7.97 22.49L7.96 17.76L6.34 17.76L6.34 22.42C6.35 23.13 6.33 23.67 6.35 23.91C6.39 24.34 6.38 24.84 6.77 25.12C7.5 25.65 8.91 25.04 9.26 24.28L9.26 25.25L10.57 25.25L10.57 17.76L10.57 17.76ZM15.78 23.14L15.78 19.23C15.78 17.73 14.67 16.84 13.17 18.05L13.17 15.14L11.54 15.14L11.54 25.19L12.88 25.17L13 24.54C14.71 26.13 15.79 25.04 15.78 23.14ZM20.89 22.62L19.67 22.63C19.66 22.68 19.66 22.74 19.66 22.8L19.66 23.49C19.66 23.85 19.36 24.15 18.99 24.15L18.75 24.15C18.39 24.15 18.09 23.85 18.09 23.49L18.09 23.41L18.09 22.65L18.09 21.68L20.89 21.68L20.89 20.62C20.89 19.84 20.87 19.06 20.8 18.62C20.6 17.22 18.65 16.99 17.66 17.71C17.35 17.94 17.11 18.24 16.98 18.64C16.84 19.04 16.77 19.59 16.77 20.3L16.77 22.63C16.77 26.51 21.45 25.96 20.89 22.62ZM14.62 9.95C14.7 10.15 14.83 10.32 15.01 10.45C15.18 10.57 15.41 10.63 15.67 10.63C15.91 10.63 16.12 10.57 16.3 10.44C16.48 10.31 16.63 10.11 16.76 9.85L16.73 10.49L18.54 10.49L18.54 2.7L17.11 2.7L17.11 8.76C17.11 9.09 16.84 9.36 16.52 9.36C16.19 9.36 15.92 9.09 15.92 8.76L15.92 2.7L14.43 2.7L14.43 7.96C14.43 8.63 14.44 9.07 14.46 9.3C14.48 9.52 14.53 9.74 14.62 9.95ZM9.11 5.55C9.11 4.8 9.17 4.21 9.29 3.79C9.42 3.37 9.64 3.04 9.96 2.78C10.28 2.53 10.69 2.4 11.19 2.4C11.61 2.4 11.97 2.48 12.27 2.65C12.58 2.81 12.81 3.02 12.97 3.28C13.14 3.55 13.25 3.82 13.31 4.1C13.37 4.38 13.4 4.8 13.4 5.37L13.4 7.34C13.4 8.06 13.37 8.6 13.31 8.93C13.26 9.27 13.14 9.59 12.96 9.88C12.77 10.17 12.54 10.39 12.26 10.53C11.97 10.67 11.64 10.74 11.27 10.74C10.86 10.74 10.51 10.68 10.22 10.56C9.93 10.44 9.71 10.26 9.55 10.02C9.39 9.78 9.28 9.49 9.21 9.15C9.14 8.8 9.11 8.29 9.11 7.61L9.11 5.55L9.11 5.55ZM10.53 8.64C10.53 9.08 10.86 9.44 11.25 9.44C11.65 9.44 11.97 9.08 11.97 8.64L11.97 4.49C11.97 4.05 11.65 3.69 11.25 3.69C10.86 3.69 10.53 4.05 10.53 4.49L10.53 8.64ZM5.5 10.74L7.21 10.74L7.22 4.76L9.24 -0.36L7.37 -0.36L6.29 3.44L5.2 -0.37L3.34 -0.37L5.5 4.76L5.5 10.74Z" fill="#000000" fill-opacity="1.000000" fill-rule="nonzero"/>
</svg>
